<?xml version="1.0" encoding="utf-8"?>
<!-- Generator: Adobe Illustrator 24.1.0, SVG Export Plug-In . SVG Version: 6.00 Build 0)  -->
<svg version="1.1" id="Layer_1" xmlns="http://www.w3.org/2000/svg" xmlns:xlink="http://www.w3.org/1999/xlink" x="0px" y="0px"
	 viewBox="0 0 800 600" style="enable-background:new 0 0 800 600;" xml:space="preserve">
<polyline style="fill:none;stroke:#0000FF;stroke-width:5;stroke-miterlimit:10;" points="112.5,202.5 148.1,180.7 179.9,162.8 
	209.7,148.2 239.3,136.5 271.6,128.9 307.4,126.8 345.3,129.5 384.1,136.5 420.6,146.2 452.3,157.5 479.3,170.2 501.4,184.5 
	521.1,202.2 540.2,224.5 557.8,250.6 573.3,279.5 584.8,306.9 591.4,331.4 594.3,356.4 594.5,385.5 594.8,415 598,440.2 605,462.8 
	616.6,484.5 636.3,504.6 663.2,520.1 691.6,529.1 716,529.5 "/>
<polygon style="fill:none;stroke:#FF0000;stroke-miterlimit:10;" points="39.8,230.8 52.9,258.9 101.4,218.7 "/>
<rect x="444" y="233" transform="matrix(0.7849 -0.6196 0.6196 0.7849 -56.8141 363.321)" style="fill:#E0CFB9;" width="101.9" height="61"/>
<rect x="539.6" y="164.5" transform="matrix(0.844 -0.5363 0.5363 0.844 -12.4724 347.1169)" style="fill:#E0CFB9;" width="101.9" height="61"/>
</svg>
